<mxfile host="Electron" agent="Mozilla/5.0 (Windows NT 10.0; Win64; x64) AppleWebKit/537.36 (KHTML, like Gecko) draw.io/28.0.6 Chrome/138.0.7204.100 Electron/37.2.3 Safari/537.36" version="28.0.6">
  <diagram name="Saga Pattern - Pago Distribuido" id="vLEdXwjBE1w9nyPpbA-0">
    <mxGraphModel dx="2127" dy="1270" grid="1" gridSize="10" guides="1" tooltips="1" connect="1" arrows="1" fold="1" page="1" pageScale="1" pageWidth="1654" pageHeight="1169" math="0" shadow="0">
      <root>
        <mxCell id="0" />
        <mxCell id="1" parent="0" />
        <mxCell id="r1T6F5w373mNPjs3CE21-1" value="SAGA PATTERN - PAGO DISTRIBUIDO SERVICIUDAD" style="rounded=1;whiteSpace=wrap;html=1;fillColor=#e1d5e7;strokeColor=#9673a6;fontSize=18;fontStyle=1;" vertex="1" parent="1">
          <mxGeometry x="60" y="11" width="1520" height="60" as="geometry" />
        </mxCell>
        <mxCell id="r1T6F5w373mNPjs3CE21-2" value="Ciudadano" style="shape=umlActor;verticalLabelPosition=bottom;verticalAlign=top;html=1;outlineConnect=0;fillColor=#dae8fc;strokeColor=#6c8ebf;" vertex="1" parent="1">
          <mxGeometry x="80" y="111" width="30" height="60" as="geometry" />
        </mxCell>
        <mxCell id="r1T6F5w373mNPjs3CE21-3" value="API Gateway" style="rounded=1;whiteSpace=wrap;html=1;fillColor=#f8cecc;strokeColor=#b85450;" vertex="1" parent="1">
          <mxGeometry x="180" y="111" width="100" height="60" as="geometry" />
        </mxCell>
        <mxCell id="r1T6F5w373mNPjs3CE21-4" value="MS-Pagos&#xa;(Saga Orchestrator)" style="rounded=1;whiteSpace=wrap;html=1;fillColor=#fff2cc;strokeColor=#d6b656;" vertex="1" parent="1">
          <mxGeometry x="340" y="111" width="120" height="60" as="geometry" />
        </mxCell>
        <mxCell id="r1T6F5w373mNPjs3CE21-5" value="MS-Clientes" style="rounded=1;whiteSpace=wrap;html=1;fillColor=#fff2cc;strokeColor=#d6b656;" vertex="1" parent="1">
          <mxGeometry x="520" y="111" width="100" height="60" as="geometry" />
        </mxCell>
        <mxCell id="r1T6F5w373mNPjs3CE21-6" value="Pasarela PSE" style="rounded=1;whiteSpace=wrap;html=1;fillColor=#e1d5e7;strokeColor=#9673a6;" vertex="1" parent="1">
          <mxGeometry x="680" y="111" width="100" height="60" as="geometry" />
        </mxCell>
        <mxCell id="r1T6F5w373mNPjs3CE21-7" value="Adaptador&#xa;Mainframe" style="rounded=1;whiteSpace=wrap;html=1;fillColor=#d5e8d4;strokeColor=#82b366;" vertex="1" parent="1">
          <mxGeometry x="840" y="111" width="100" height="60" as="geometry" />
        </mxCell>
        <mxCell id="r1T6F5w373mNPjs3CE21-8" value="Adaptador&#xa;Oracle" style="rounded=1;whiteSpace=wrap;html=1;fillColor=#d5e8d4;strokeColor=#82b366;" vertex="1" parent="1">
          <mxGeometry x="1000" y="111" width="100" height="60" as="geometry" />
        </mxCell>
        <mxCell id="r1T6F5w373mNPjs3CE21-9" value="MS-Notificaciones" style="rounded=1;whiteSpace=wrap;html=1;fillColor=#fff2cc;strokeColor=#d6b656;" vertex="1" parent="1">
          <mxGeometry x="1160" y="111" width="100" height="60" as="geometry" />
        </mxCell>
        <mxCell id="r1T6F5w373mNPjs3CE21-10" value="" style="endArrow=none;dashed=1;html=1;strokeColor=#666666;" edge="1" parent="1">
          <mxGeometry width="50" height="50" relative="1" as="geometry">
            <mxPoint x="95" y="191" as="sourcePoint" />
            <mxPoint x="95" y="1071" as="targetPoint" />
          </mxGeometry>
        </mxCell>
        <mxCell id="r1T6F5w373mNPjs3CE21-11" value="" style="endArrow=none;dashed=1;html=1;strokeColor=#666666;" edge="1" parent="1">
          <mxGeometry width="50" height="50" relative="1" as="geometry">
            <mxPoint x="230" y="191" as="sourcePoint" />
            <mxPoint x="230" y="1071" as="targetPoint" />
          </mxGeometry>
        </mxCell>
        <mxCell id="r1T6F5w373mNPjs3CE21-12" value="" style="endArrow=none;dashed=1;html=1;strokeColor=#666666;" edge="1" parent="1">
          <mxGeometry width="50" height="50" relative="1" as="geometry">
            <mxPoint x="400" y="191" as="sourcePoint" />
            <mxPoint x="400" y="1071" as="targetPoint" />
          </mxGeometry>
        </mxCell>
        <mxCell id="r1T6F5w373mNPjs3CE21-13" value="" style="endArrow=none;dashed=1;html=1;strokeColor=#666666;" edge="1" parent="1">
          <mxGeometry width="50" height="50" relative="1" as="geometry">
            <mxPoint x="570" y="191" as="sourcePoint" />
            <mxPoint x="570" y="1071" as="targetPoint" />
          </mxGeometry>
        </mxCell>
        <mxCell id="r1T6F5w373mNPjs3CE21-14" value="" style="endArrow=none;dashed=1;html=1;strokeColor=#666666;" edge="1" parent="1">
          <mxGeometry width="50" height="50" relative="1" as="geometry">
            <mxPoint x="730" y="191" as="sourcePoint" />
            <mxPoint x="730" y="1071" as="targetPoint" />
          </mxGeometry>
        </mxCell>
        <mxCell id="r1T6F5w373mNPjs3CE21-15" value="" style="endArrow=none;dashed=1;html=1;strokeColor=#666666;" edge="1" parent="1">
          <mxGeometry width="50" height="50" relative="1" as="geometry">
            <mxPoint x="890" y="191" as="sourcePoint" />
            <mxPoint x="890" y="1071" as="targetPoint" />
          </mxGeometry>
        </mxCell>
        <mxCell id="r1T6F5w373mNPjs3CE21-16" value="" style="endArrow=none;dashed=1;html=1;strokeColor=#666666;" edge="1" parent="1">
          <mxGeometry width="50" height="50" relative="1" as="geometry">
            <mxPoint x="1050" y="191" as="sourcePoint" />
            <mxPoint x="1050" y="1071" as="targetPoint" />
          </mxGeometry>
        </mxCell>
        <mxCell id="r1T6F5w373mNPjs3CE21-17" value="" style="endArrow=none;dashed=1;html=1;strokeColor=#666666;" edge="1" parent="1">
          <mxGeometry width="50" height="50" relative="1" as="geometry">
            <mxPoint x="1210" y="191" as="sourcePoint" />
            <mxPoint x="1210" y="1071" as="targetPoint" />
          </mxGeometry>
        </mxCell>
        <mxCell id="r1T6F5w373mNPjs3CE21-18" value="1. POST /pagos/serviciudad&#xa;{energia: 150000, agua: 80000, cliente: &#39;12345&#39;}" style="endArrow=classic;html=1;strokeColor=#d6b656;strokeWidth=2;" edge="1" parent="1">
          <mxGeometry width="50" height="50" relative="1" as="geometry">
            <mxPoint x="95" y="221" as="sourcePoint" />
            <mxPoint x="230" y="221" as="targetPoint" />
          </mxGeometry>
        </mxCell>
        <mxCell id="r1T6F5w373mNPjs3CE21-19" value="2. Enrutar a MS-Pagos" style="endArrow=classic;html=1;strokeColor=#d6b656;strokeWidth=2;" edge="1" parent="1">
          <mxGeometry width="50" height="50" relative="1" as="geometry">
            <mxPoint x="230" y="251" as="sourcePoint" />
            <mxPoint x="400" y="251" as="targetPoint" />
          </mxGeometry>
        </mxCell>
        <mxCell id="r1T6F5w373mNPjs3CE21-20" value="3. Iniciar Saga: PagoServiCiudadSaga" style="rounded=1;whiteSpace=wrap;html=1;fillColor=#fff2cc;strokeColor=#d6b656;" vertex="1" parent="1">
          <mxGeometry x="320" y="271" width="160" height="30" as="geometry" />
        </mxCell>
        <mxCell id="r1T6F5w373mNPjs3CE21-21" value="4. Validar Cliente ServiCiudad" style="endArrow=classic;html=1;strokeColor=#82b366;strokeWidth=2;" edge="1" parent="1">
          <mxGeometry width="50" height="50" relative="1" as="geometry">
            <mxPoint x="400" y="321" as="sourcePoint" />
            <mxPoint x="570" y="321" as="targetPoint" />
          </mxGeometry>
        </mxCell>
        <mxCell id="r1T6F5w373mNPjs3CE21-22" value="✅ Cliente Válido" style="endArrow=classic;html=1;strokeColor=#82b366;strokeWidth=2;dashed=1;" edge="1" parent="1">
          <mxGeometry width="50" height="50" relative="1" as="geometry">
            <mxPoint x="570" y="351" as="sourcePoint" />
            <mxPoint x="400" y="351" as="targetPoint" />
          </mxGeometry>
        </mxCell>
        <mxCell id="r1T6F5w373mNPjs3CE21-23" value="5. Procesar Pago PSE" style="endArrow=classic;html=1;strokeColor=#9673a6;strokeWidth=2;" edge="1" parent="1">
          <mxGeometry width="50" height="50" relative="1" as="geometry">
            <mxPoint x="400" y="391" as="sourcePoint" />
            <mxPoint x="730" y="391" as="targetPoint" />
          </mxGeometry>
        </mxCell>
        <mxCell id="r1T6F5w373mNPjs3CE21-24" value="✅ Pago Autorizado&#xa;TransactionId: TXN123" style="endArrow=classic;html=1;strokeColor=#9673a6;strokeWidth=2;dashed=1;" edge="1" parent="1">
          <mxGeometry width="50" height="50" relative="1" as="geometry">
            <mxPoint x="730" y="431" as="sourcePoint" />
            <mxPoint x="400" y="431" as="targetPoint" />
          </mxGeometry>
        </mxCell>
        <mxCell id="r1T6F5w373mNPjs3CE21-25" value="6. Actualizar Saldo Energía" style="endArrow=classic;html=1;strokeColor=#82b366;strokeWidth=2;" edge="1" parent="1">
          <mxGeometry width="50" height="50" relative="1" as="geometry">
            <mxPoint x="400" y="471" as="sourcePoint" />
            <mxPoint x="890" y="471" as="targetPoint" />
          </mxGeometry>
        </mxCell>
        <mxCell id="r1T6F5w373mNPjs3CE21-26" value="✅ Saldo Actualizado" style="endArrow=classic;html=1;strokeColor=#82b366;strokeWidth=2;dashed=1;" edge="1" parent="1">
          <mxGeometry width="50" height="50" relative="1" as="geometry">
            <mxPoint x="890" y="501" as="sourcePoint" />
            <mxPoint x="400" y="501" as="targetPoint" />
          </mxGeometry>
        </mxCell>
        <mxCell id="r1T6F5w373mNPjs3CE21-27" value="7. Actualizar Saldo Agua" style="endArrow=classic;html=1;strokeColor=#82b366;strokeWidth=2;" edge="1" parent="1">
          <mxGeometry width="50" height="50" relative="1" as="geometry">
            <mxPoint x="400" y="541" as="sourcePoint" />
            <mxPoint x="1050" y="541" as="targetPoint" />
          </mxGeometry>
        </mxCell>
        <mxCell id="r1T6F5w373mNPjs3CE21-28" value="✅ Saldo Actualizado" style="endArrow=classic;html=1;strokeColor=#82b366;strokeWidth=2;dashed=1;" edge="1" parent="1">
          <mxGeometry width="50" height="50" relative="1" as="geometry">
            <mxPoint x="1050" y="571" as="sourcePoint" />
            <mxPoint x="400" y="571" as="targetPoint" />
          </mxGeometry>
        </mxCell>
        <mxCell id="r1T6F5w373mNPjs3CE21-29" value="8. Enviar Notificación" style="endArrow=classic;html=1;strokeColor=#d6b656;strokeWidth=2;" edge="1" parent="1">
          <mxGeometry width="50" height="50" relative="1" as="geometry">
            <mxPoint x="400" y="611" as="sourcePoint" />
            <mxPoint x="1210" y="611" as="targetPoint" />
          </mxGeometry>
        </mxCell>
        <mxCell id="r1T6F5w373mNPjs3CE21-30" value="✅ SMS/Email Enviado" style="endArrow=classic;html=1;strokeColor=#d6b656;strokeWidth=2;dashed=1;" edge="1" parent="1">
          <mxGeometry width="50" height="50" relative="1" as="geometry">
            <mxPoint x="1210" y="641" as="sourcePoint" />
            <mxPoint x="400" y="641" as="targetPoint" />
          </mxGeometry>
        </mxCell>
        <mxCell id="r1T6F5w373mNPjs3CE21-31" value="9. Saga Completada" style="rounded=1;whiteSpace=wrap;html=1;fillColor=#d5e8d4;strokeColor=#82b366;" vertex="1" parent="1">
          <mxGeometry x="320" y="671" width="160" height="30" as="geometry" />
        </mxCell>
        <mxCell id="r1T6F5w373mNPjs3CE21-32" value="10. HTTP 200 OK&#xa;{status: &#39;SUCCESS&#39;, transactionId: &#39;TXN123&#39;}" style="endArrow=classic;html=1;strokeColor=#82b366;strokeWidth=2;" edge="1" parent="1">
          <mxGeometry width="50" height="50" relative="1" as="geometry">
            <mxPoint x="400" y="721" as="sourcePoint" />
            <mxPoint x="230" y="721" as="targetPoint" />
          </mxGeometry>
        </mxCell>
        <mxCell id="r1T6F5w373mNPjs3CE21-33" value="11. Respuesta Final" style="endArrow=classic;html=1;strokeColor=#82b366;strokeWidth=2;" edge="1" parent="1">
          <mxGeometry width="50" height="50" relative="1" as="geometry">
            <mxPoint x="230" y="751" as="sourcePoint" />
            <mxPoint x="95" y="751" as="targetPoint" />
          </mxGeometry>
        </mxCell>
        <mxCell id="r1T6F5w373mNPjs3CE21-34" value="ESCENARIO DE ROLLBACK - FALLA EN ACTUALIZACIÓN ORACLE" style="rounded=1;whiteSpace=wrap;html=1;fillColor=#f8cecc;strokeColor=#b85450;fontSize=14;fontStyle=1;" vertex="1" parent="1">
          <mxGeometry x="60" y="791" width="1200" height="30" as="geometry" />
        </mxCell>
        <mxCell id="r1T6F5w373mNPjs3CE21-35" value="❌ 7. Falla Actualizar Agua (Oracle)" style="endArrow=classic;html=1;strokeColor=#b85450;strokeWidth=2;" edge="1" parent="1">
          <mxGeometry width="50" height="50" relative="1" as="geometry">
            <mxPoint x="400" y="841" as="sourcePoint" />
            <mxPoint x="1050" y="841" as="targetPoint" />
          </mxGeometry>
        </mxCell>
        <mxCell id="r1T6F5w373mNPjs3CE21-36" value="❌ ERROR: Timeout 30s" style="endArrow=classic;html=1;strokeColor=#b85450;strokeWidth=2;dashed=1;" edge="1" parent="1">
          <mxGeometry width="50" height="50" relative="1" as="geometry">
            <mxPoint x="1050" y="871" as="sourcePoint" />
            <mxPoint x="400" y="871" as="targetPoint" />
          </mxGeometry>
        </mxCell>
        <mxCell id="r1T6F5w373mNPjs3CE21-37" value="8. Iniciar Rollback" style="rounded=1;whiteSpace=wrap;html=1;fillColor=#f8cecc;strokeColor=#b85450;" vertex="1" parent="1">
          <mxGeometry x="320" y="891" width="160" height="30" as="geometry" />
        </mxCell>
        <mxCell id="r1T6F5w373mNPjs3CE21-38" value="9. Compensar Saldo Energía" style="endArrow=classic;html=1;strokeColor=#b85450;strokeWidth=2;" edge="1" parent="1">
          <mxGeometry width="50" height="50" relative="1" as="geometry">
            <mxPoint x="400" y="941" as="sourcePoint" />
            <mxPoint x="890" y="941" as="targetPoint" />
          </mxGeometry>
        </mxCell>
        <mxCell id="r1T6F5w373mNPjs3CE21-39" value="✅ Saldo Revertido" style="endArrow=classic;html=1;strokeColor=#82b366;strokeWidth=2;dashed=1;" edge="1" parent="1">
          <mxGeometry width="50" height="50" relative="1" as="geometry">
            <mxPoint x="890" y="971" as="sourcePoint" />
            <mxPoint x="400" y="971" as="targetPoint" />
          </mxGeometry>
        </mxCell>
        <mxCell id="r1T6F5w373mNPjs3CE21-40" value="10. Reversar Pago PSE" style="endArrow=classic;html=1;strokeColor=#b85450;strokeWidth=2;" edge="1" parent="1">
          <mxGeometry width="50" height="50" relative="1" as="geometry">
            <mxPoint x="400" y="1011" as="sourcePoint" />
            <mxPoint x="730" y="1011" as="targetPoint" />
          </mxGeometry>
        </mxCell>
        <mxCell id="r1T6F5w373mNPjs3CE21-41" value="✅ Pago Revertido" style="endArrow=classic;html=1;strokeColor=#82b366;strokeWidth=2;dashed=1;" edge="1" parent="1">
          <mxGeometry width="50" height="50" relative="1" as="geometry">
            <mxPoint x="730" y="1041" as="sourcePoint" />
            <mxPoint x="400" y="1041" as="targetPoint" />
          </mxGeometry>
        </mxCell>
        <mxCell id="r1T6F5w373mNPjs3CE21-42" value="PATRONES Y COMPONENTES SAGA" style="rounded=1;whiteSpace=wrap;html=1;fillColor=#f5f5f5;strokeColor=#666666;fontSize=14;fontStyle=1;" vertex="1" parent="1">
          <mxGeometry x="1320" y="221" width="280" height="40" as="geometry" />
        </mxCell>
        <mxCell id="r1T6F5w373mNPjs3CE21-43" value="Saga Orchestrator&#xa;• Coordina todas las transacciones&#xa;• Mantiene estado de la saga&#xa;• Ejecuta compensaciones" style="rounded=1;whiteSpace=wrap;html=1;fillColor=#fff2cc;strokeColor=#d6b656;" vertex="1" parent="1">
          <mxGeometry x="1320" y="271" width="280" height="80" as="geometry" />
        </mxCell>
        <mxCell id="r1T6F5w373mNPjs3CE21-44" value="Participantes de la Saga&#xa;• MS-Clientes: Validar cliente&#xa;• Pasarela PSE: Procesar pago&#xa;• Adaptador Mainframe: Actualizar energía&#xa;• Adaptador Oracle: Actualizar agua&#xa;• MS-Notificaciones: Enviar confirmación" style="rounded=1;whiteSpace=wrap;html=1;fillColor=#e1d5e7;strokeColor=#9673a6;" vertex="1" parent="1">
          <mxGeometry x="1320" y="371" width="280" height="120" as="geometry" />
        </mxCell>
        <mxCell id="r1T6F5w373mNPjs3CE21-45" value="Acciones de Compensación&#xa;• Revertir saldo energía en mainframe&#xa;• Cancelar/reversar pago en PSE&#xa;• Enviar notificación de falla&#xa;• Marcar transacción como fallida" style="rounded=1;whiteSpace=wrap;html=1;fillColor=#f8cecc;strokeColor=#b85450;" vertex="1" parent="1">
          <mxGeometry x="1320" y="511" width="280" height="100" as="geometry" />
        </mxCell>
        <mxCell id="r1T6F5w373mNPjs3CE21-46" value="Estados de la Saga&#xa;• STARTED: Saga iniciada&#xa;• IN_PROGRESS: En ejecución&#xa;• COMPENSATING: Ejecutando rollback&#xa;• COMPLETED: Exitosa&#xa;• FAILED: Fallida con compensación" style="rounded=1;whiteSpace=wrap;html=1;fillColor=#d5e8d4;strokeColor=#82b366;" vertex="1" parent="1">
          <mxGeometry x="1320" y="631" width="280" height="120" as="geometry" />
        </mxCell>
        <mxCell id="r1T6F5w373mNPjs3CE21-47" value="Patrones de Resiliencia&#xa;• Circuit Breaker: En adaptadores&#xa;• Timeout: 30s máximo por operación&#xa;• Retry: 3 intentos con backoff&#xa;• Fallback: Usar datos en caché&#xa;• Bulkhead: Aislar recursos por servicio" style="rounded=1;whiteSpace=wrap;html=1;fillColor=#ffe6cc;strokeColor=#d79b00;" vertex="1" parent="1">
          <mxGeometry x="1320" y="771" width="280" height="120" as="geometry" />
        </mxCell>
        <mxCell id="r1T6F5w373mNPjs3CE21-48" value="LEYENDA" style="rounded=1;whiteSpace=wrap;html=1;fillColor=#f5f5f5;strokeColor=#666666;fontSize=14;fontStyle=1;" vertex="1" parent="1">
          <mxGeometry x="60" y="1084" width="1200" height="30" as="geometry" />
        </mxCell>
        <mxCell id="r1T6F5w373mNPjs3CE21-49" value="→ Línea Sólida: Llamada exitosa" style="endArrow=classic;html=1;strokeColor=#82b366;strokeWidth=2;" edge="1" parent="1">
          <mxGeometry width="50" height="50" relative="1" as="geometry">
            <mxPoint x="80" y="1134" as="sourcePoint" />
            <mxPoint x="200" y="1134" as="targetPoint" />
          </mxGeometry>
        </mxCell>
        <mxCell id="r1T6F5w373mNPjs3CE21-50" value="⟵ Línea Punteada: Respuesta" style="endArrow=classic;html=1;strokeColor=#6c8ebf;strokeWidth=2;dashed=1;" edge="1" parent="1">
          <mxGeometry width="50" height="50" relative="1" as="geometry">
            <mxPoint x="280" y="1134" as="sourcePoint" />
            <mxPoint x="400" y="1134" as="targetPoint" />
          </mxGeometry>
        </mxCell>
        <mxCell id="r1T6F5w373mNPjs3CE21-51" value="→ Línea Roja: Llamada fallida/compensación" style="endArrow=classic;html=1;strokeColor=#b85450;strokeWidth=2;" edge="1" parent="1">
          <mxGeometry width="50" height="50" relative="1" as="geometry">
            <mxPoint x="480" y="1134" as="sourcePoint" />
            <mxPoint x="650" y="1134" as="targetPoint" />
          </mxGeometry>
        </mxCell>
        <mxCell id="r1T6F5w373mNPjs3CE21-52" value="🟢 Verde: Éxito | 🔵 Azul: Proceso | 🔴 Rojo: Falla | 🟡 Amarillo: MS Core" style="rounded=0;whiteSpace=wrap;html=1;" vertex="1" parent="1">
          <mxGeometry x="730" y="1124" width="530" height="30" as="geometry" />
        </mxCell>
      </root>
    </mxGraphModel>
  </diagram>
</mxfile>
